<?xml version="1.0" encoding="utf-8"?>
<!-- Generator: Adobe Illustrator 27.9.0, SVG Export Plug-In . SVG Version: 6.00 Build 0)  -->
<svg version="1.1" id="Camada_1" xmlns="http://www.w3.org/2000/svg" xmlns:xlink="http://www.w3.org/1999/xlink" x="0px" y="0px"
	 viewBox="0 0 1080 1080" style="enable-background:new 0 0 1080 1080;" xml:space="preserve">
<style type="text/css">
	.st0{fill:#026AA2;}
	.st1{fill:#383938;}
</style>
<g>
	<g>
		<g>
			<path class="st0" d="M862.4,259.8v487.2l-308.3-477c-6.6-10.2-21.5-10.2-28.1,0l-308.3,477V259.8c0-30.4,24.6-54.9,54.9-54.9
				h534.9C837.8,204.8,862.4,229.4,862.4,259.8z"/>
		</g>
		<g>
			<path class="st1" d="M825.3,872.8l-39.8-23.2l-127.9-74.8l-36.1-21l-73-42.7c-5.2-3.1-11.7-3.1-16.9,0l-73,42.7l-36.1,21
				l-127.9,74.8l-39.8,23.2c-15.2,8.9-32-8.7-22.5-23.5l7.1-11l286.7-443.5c6.6-10.2,21.5-10.2,28.1,0l286.7,443.5l7.1,11
				C857.3,864.1,840.5,881.7,825.3,872.8z"/>
		</g>
	</g>
</g>
</svg>
